<svg xmlns="http://www.w3.org/2000/svg" width="512" height="512" viewBox="0 0 135.467 135.467"><g transform="matrix(1.17455 0 0 1.13344 -103.345 -85.3)"><rect width="66.146" height="60.854" x="108.244" y="86.863" ry="2.268" style="display:inline;opacity:1;fill:#000;stroke-width:2.64583;stroke-linecap:round;stroke-linejoin:round"/><path d="M419.111 369.643v170.086a8.552 8.552 0 0 0 8.573 8.57H640.54a8.55 8.55 0 0 0 8.57-8.57V369.643Z" style="display:inline;opacity:1;fill:#fff;stroke-width:9.99999;stroke-linecap:round;stroke-linejoin:round" transform="scale(.26458)"/><path d="M417.684 328.299a8.554 8.554 0 0 0-8.573 8.572v32.772h249.817V335.1a8.55 8.55 0 0 0-8.387-6.801z" style="display:inline;opacity:1;fill:navy;fill-opacity:1;stroke-width:9.7505;stroke-linecap:round;stroke-linejoin:round" transform="scale(.26458)"/><path d="M435.896 386.97v14h54v-14zm71.215 0v14h54v-14zm71.215 0v14h54v-14zm-142.43 26v14h54v-14zm71.215 0v14h54v-14zm71.215 0v14h54v-14zm-142.43 26v14h54v-14zm71.215 0v14h54v-14zm71.215 0v14h54v-14zm-142.43 26v14h54v-14zm71.215 0v14h54v-14zm71.215 0v14h54v-14zm-142.43 26v14h54v-14zm71.215 0v14h54v-14zm71.215 0v14h54v-14zm-142.43 26v14h54v-14zm71.215 0v14h54v-14zm71.215 0v14h54v-14z" style="display:inline;opacity:1;fill:#868686;fill-opacity:1;stroke-width:9.99999;stroke-linecap:round;stroke-linejoin:round" transform="scale(.26458)"/></g><g transform="matrix(1.17455 0 0 1.13344 -122.99 -45.115)"><rect width="66.146" height="60.854" x="108.244" y="86.863" ry="2.268" style="display:inline;opacity:1;fill:#000;stroke-width:2.64583;stroke-linecap:round;stroke-linejoin:round"/><path d="M419.111 369.643v170.086a8.552 8.552 0 0 0 8.573 8.57H640.54a8.55 8.55 0 0 0 8.57-8.57V369.643Z" style="display:inline;opacity:1;fill:#fff;stroke-width:9.99999;stroke-linecap:round;stroke-linejoin:round" transform="scale(.26458)"/><path d="M417.684 328.299a8.554 8.554 0 0 0-8.573 8.572v32.772h249.817V335.1a8.55 8.55 0 0 0-8.387-6.801z" style="display:inline;opacity:1;fill:navy;fill-opacity:1;stroke-width:9.7505;stroke-linecap:round;stroke-linejoin:round" transform="scale(.26458)"/><path d="M435.896 386.97v14h54v-14zm71.215 0v14h54v-14zm71.215 0v14h54v-14zm-142.43 26v14h54v-14zm71.215 0v14h54v-14zm71.215 0v14h54v-14zm-142.43 26v14h54v-14zm71.215 0v14h54v-14zm71.215 0v14h54v-14zm-142.43 26v14h54v-14zm71.215 0v14h54v-14zm71.215 0v14h54v-14zm-142.43 26v14h54v-14zm71.215 0v14h54v-14zm71.215 0v14h54v-14zm-142.43 26v14h54v-14zm71.215 0v14h54v-14zm71.215 0v14h54v-14z" style="display:inline;opacity:1;fill:#868686;fill-opacity:1;stroke-width:9.99999;stroke-linecap:round;stroke-linejoin:round" transform="scale(.26458)"/></g><g transform="matrix(1.17455 0 0 1.13344 -73.511 -61.107)"><rect width="66.146" height="60.854" x="108.244" y="86.863" ry="2.268" style="display:inline;opacity:1;fill:#000;stroke-width:2.64583;stroke-linecap:round;stroke-linejoin:round"/><g style="fill:#fff;fill-opacity:1"><path d="m44.484 442.543-8.459 8.459 25.782 25.783-25.782 25.783 8.46 8.46 34.242-34.243z" style="opacity:1;fill:#fff;fill-opacity:1;stroke-width:8.25997;stroke-linecap:round;stroke-linejoin:round" transform="matrix(.26458 0 0 .26458 117.227 -4.713)"/><path d="M21.734 131.914h16.914v2.977H21.734z" style="opacity:1;fill:#fff;fill-opacity:1;stroke-width:2.64583;stroke-linecap:round;stroke-linejoin:round" transform="translate(117.227 -4.713)"/></g><path d="M417.684 328.299a8.554 8.554 0 0 0-8.573 8.572v32.772h249.817V335.1a8.55 8.55 0 0 0-8.387-6.801z" style="display:inline;opacity:1;fill:navy;fill-opacity:1;stroke-width:9.7505;stroke-linecap:round;stroke-linejoin:round" transform="scale(.26458)"/></g></svg>