<?xml version="1.0" encoding="UTF-8" standalone="no"?>
<svg
   xmlns:dc="http://purl.org/dc/elements/1.1/"
   xmlns:cc="http://creativecommons.org/ns#"
   xmlns:rdf="http://www.w3.org/1999/02/22-rdf-syntax-ns#"
   xmlns:svg="http://www.w3.org/2000/svg"
   xmlns="http://www.w3.org/2000/svg"
   width="512"
   height="512"
   viewBox="0 0 135.46666 135.46667"
   version="1.1"
   id="svg8">
  <defs
     id="defs2" />
  <metadata
     id="metadata5">
    <rdf:RDF>
      <cc:Work
         rdf:about="">
        <dc:format>image/svg+xml</dc:format>
        <dc:type
           rdf:resource="http://purl.org/dc/dcmitype/StillImage" />
        <dc:title></dc:title>
      </cc:Work>
    </rdf:RDF>
  </metadata>
  <g
     id="layer1">
    <g
       id="g1731"
       transform="matrix(1.1745501,0,0,1.133438,-103.3447,-85.299569)">
      <rect
         style="display:inline;opacity:1;fill:#000000;stroke-width:2.64583;stroke-linecap:round;stroke-linejoin:round"
         id="rect1723"
         width="66.145836"
         height="60.854164"
         x="108.24416"
         y="86.862602"
         ry="2.2678571" />
      <path
         id="path1725"
         style="display:inline;opacity:1;fill:#ffffff;stroke-width:9.99999;stroke-linecap:round;stroke-linejoin:round"
         d="m 419.11133,369.64258 v 170.08594 c 0,4.74856 3.82367,8.57031 8.57226,8.57031 h 212.85743 c 4.74856,0 8.57031,-3.82175 8.57031,-8.57031 V 369.64258 Z"
         transform="scale(0.26458333)" />
      <path
         id="path1727"
         style="display:inline;opacity:1;fill:#000080;fill-opacity:1;stroke-width:9.7505;stroke-linecap:round;stroke-linejoin:round"
         d="m 417.68359,328.29883 c -4.74856,0 -8.57226,3.82369 -8.57226,8.57226 v 32.77149 h 249.8164 v -34.54297 c -0.81181,-3.89294 -4.24578,-6.80078 -8.38671,-6.80078 z"
         transform="scale(0.26458333)" />
      <path
         id="path1729"
         style="display:inline;opacity:1;fill:#868686;fill-opacity:1;stroke-width:9.99999;stroke-linecap:round;stroke-linejoin:round"
         d="m 435.89648,386.9707 v 14 h 54 v -14 z m 71.21485,0 v 14 h 54 v -14 z m 71.21484,0 v 14 h 54 v -14 z m -142.42969,26 v 14 h 54 v -14 z m 71.21485,0 v 14 h 54 v -14 z m 71.21484,0 v 14 h 54 v -14 z m -142.42969,26 v 14 h 54 v -14 z m 71.21485,0 v 14 h 54 v -14 z m 71.21484,0 v 14 h 54 v -14 z m -142.42969,26 v 14 h 54 v -14 z m 71.21485,0 v 14 h 54 v -14 z m 71.21484,0 v 14 h 54 v -14 z m -142.42969,26 v 14 h 54 v -14 z m 71.21485,0 v 14 h 54 v -14 z m 71.21484,0 v 14 h 54 v -14 z m -142.42969,26 v 14 h 54 v -14 z m 71.21485,0 v 14 h 54 v -14 z m 71.21484,0 v 14 h 54 v -14 z"
         transform="scale(0.26458333)" />
    </g>
    <g
       id="g1721"
       transform="matrix(1.1745501,0,0,1.133438,-122.98989,-45.114705)">
      <rect
         style="display:inline;opacity:1;fill:#000000;stroke-width:2.64583;stroke-linecap:round;stroke-linejoin:round"
         id="rect1713"
         width="66.145836"
         height="60.854164"
         x="108.24416"
         y="86.862602"
         ry="2.2678571" />
      <path
         id="path1715"
         style="display:inline;opacity:1;fill:#ffffff;stroke-width:9.99999;stroke-linecap:round;stroke-linejoin:round"
         d="m 419.11133,369.64258 v 170.08594 c 0,4.74856 3.82367,8.57031 8.57226,8.57031 h 212.85743 c 4.74856,0 8.57031,-3.82175 8.57031,-8.57031 V 369.64258 Z"
         transform="scale(0.26458333)" />
      <path
         id="path1717"
         style="display:inline;opacity:1;fill:#000080;fill-opacity:1;stroke-width:9.7505;stroke-linecap:round;stroke-linejoin:round"
         d="m 417.68359,328.29883 c -4.74856,0 -8.57226,3.82369 -8.57226,8.57226 v 32.77149 h 249.8164 v -34.54297 c -0.81181,-3.89294 -4.24578,-6.80078 -8.38671,-6.80078 z"
         transform="scale(0.26458333)" />
      <path
         id="path1719"
         style="display:inline;opacity:1;fill:#868686;fill-opacity:1;stroke-width:9.99999;stroke-linecap:round;stroke-linejoin:round"
         d="m 435.89648,386.9707 v 14 h 54 v -14 z m 71.21485,0 v 14 h 54 v -14 z m 71.21484,0 v 14 h 54 v -14 z m -142.42969,26 v 14 h 54 v -14 z m 71.21485,0 v 14 h 54 v -14 z m 71.21484,0 v 14 h 54 v -14 z m -142.42969,26 v 14 h 54 v -14 z m 71.21485,0 v 14 h 54 v -14 z m 71.21484,0 v 14 h 54 v -14 z m -142.42969,26 v 14 h 54 v -14 z m 71.21485,0 v 14 h 54 v -14 z m 71.21484,0 v 14 h 54 v -14 z m -142.42969,26 v 14 h 54 v -14 z m 71.21485,0 v 14 h 54 v -14 z m 71.21484,0 v 14 h 54 v -14 z m -142.42969,26 v 14 h 54 v -14 z m 71.21485,0 v 14 h 54 v -14 z m 71.21484,0 v 14 h 54 v -14 z"
         transform="scale(0.26458333)" />
    </g>
    <g
       id="g1711"
       transform="matrix(1.1745501,0,0,1.133438,-73.511277,-61.107211)">
      <rect
         style="display:inline;opacity:1;fill:#000000;stroke-width:2.64583;stroke-linecap:round;stroke-linejoin:round"
         id="rect847"
         width="66.145836"
         height="60.854164"
         x="108.24416"
         y="86.862602"
         ry="2.2678571" />
      <g
         id="g1800"
         transform="translate(117.22706,-4.7134065)"
         style="fill:#ffffff;fill-opacity:1">
        <path
           id="rect1771"
           style="opacity:1;fill:#ffffff;fill-opacity:1;stroke-width:8.25997;stroke-linecap:round;stroke-linejoin:round"
           d="m 44.484375,442.54297 -8.458984,8.45898 25.78125,25.78321 -25.78125,25.7832 8.458984,8.45898 34.242187,-34.24218 z"
           transform="scale(0.26458333)" />
        <rect
           style="opacity:1;fill:#ffffff;fill-opacity:1;stroke-width:2.64583;stroke-linecap:round;stroke-linejoin:round"
           id="rect1781"
           width="16.914434"
           height="2.9765625"
           x="21.733631"
           y="131.9137" />
      </g>
      <path
         id="rect853"
         style="display:inline;opacity:1;fill:#000080;fill-opacity:1;stroke-width:9.7505;stroke-linecap:round;stroke-linejoin:round"
         d="m 417.68359,328.29883 c -4.74856,0 -8.57226,3.82369 -8.57226,8.57226 v 32.77149 h 249.8164 v -34.54297 c -0.81181,-3.89294 -4.24578,-6.80078 -8.38671,-6.80078 z"
         transform="scale(0.26458333)" />
      <path
         id="path1375"
         style="display:none;opacity:1;fill:#868686;fill-opacity:1;stroke-width:9.99999;stroke-linecap:round;stroke-linejoin:round"
         d="m 435.89648,386.9707 v 14 h 54 v -14 z m 71.21485,0 v 14 h 54 v -14 z m 71.21484,0 v 14 h 54 v -14 z m -142.42969,26 v 14 h 54 v -14 z m 71.21485,0 v 14 h 54 v -14 z m 71.21484,0 v 14 h 54 v -14 z m -142.42969,26 v 14 h 54 v -14 z m 71.21485,0 v 14 h 54 v -14 z m 71.21484,0 v 14 h 54 v -14 z m -142.42969,26 v 14 h 54 v -14 z m 71.21485,0 v 14 h 54 v -14 z m 71.21484,0 v 14 h 54 v -14 z m -142.42969,26 v 14 h 54 v -14 z m 71.21485,0 v 14 h 54 v -14 z m 71.21484,0 v 14 h 54 v -14 z m -142.42969,26 v 14 h 54 v -14 z m 71.21485,0 v 14 h 54 v -14 z m 71.21484,0 v 14 h 54 v -14 z"
         transform="scale(0.26458333)" />
    </g>
  </g>
</svg>
